<svg width="1291" height="855" viewBox="0 0 1291 855" fill="none" xmlns="http://www.w3.org/2000/svg">
<path d="M611.045 450.971H617.343V469.99H641.282V450.971H647.58V497H641.282V475.474H617.343V497H611.045V450.971ZM680.887 478.137L673.9 457.802L666.474 478.137H680.887ZM670.641 450.971H677.691L694.392 497H687.561L682.893 483.213H664.688L659.706 497H653.314L670.641 450.971ZM699.907 450.971H708.837L722.059 489.887L735.188 450.971H744.024V497H738.102V469.834C738.102 468.894 738.123 467.338 738.165 465.165C738.207 462.993 738.228 460.664 738.228 458.178L725.099 497H718.926L705.703 458.178V459.588C705.703 460.716 705.724 462.439 705.766 464.758C705.829 467.056 705.86 468.748 705.86 469.834V497H699.907V450.971ZM754.928 450.971H761.226V497H754.928V450.971ZM775.452 482.148C775.598 484.759 776.214 486.879 777.301 488.509C779.369 491.558 783.014 493.083 788.236 493.083C790.576 493.083 792.706 492.749 794.628 492.081C798.346 490.786 800.205 488.467 800.205 485.125C800.205 482.618 799.422 480.832 797.855 479.767C796.268 478.722 793.782 477.813 790.398 477.041L784.163 475.631C780.089 474.711 777.207 473.698 775.515 472.591C772.59 470.669 771.128 467.797 771.128 463.974C771.128 459.838 772.559 456.444 775.421 453.791C778.282 451.138 782.335 449.812 787.578 449.812C792.403 449.812 796.498 450.981 799.861 453.321C803.245 455.64 804.937 459.358 804.937 464.476H799.077C798.764 462.011 798.096 460.12 797.072 458.804C795.171 456.402 791.944 455.201 787.39 455.201C783.713 455.201 781.071 455.974 779.463 457.52C777.854 459.066 777.05 460.862 777.05 462.909C777.05 465.165 777.99 466.815 779.87 467.86C781.102 468.528 783.891 469.364 788.236 470.366L794.691 471.839C797.803 472.549 800.205 473.521 801.897 474.753C804.822 476.905 806.284 480.028 806.284 484.122C806.284 489.219 804.425 492.864 800.707 495.057C797.009 497.251 792.706 498.347 787.797 498.347C782.074 498.347 777.593 496.885 774.355 493.961C771.117 491.057 769.53 487.119 769.592 482.148H775.452ZM815.59 450.971H821.888V497H815.59V450.971Z" fill="#173273"/>
<path d="M609.167 30.7794C609.267 32.5763 609.692 34.0353 610.439 35.1566C611.862 37.2553 614.371 38.3047 617.964 38.3047C619.574 38.3047 621.041 38.0747 622.363 37.6147C624.922 36.7234 626.201 35.1278 626.201 32.8278C626.201 31.1028 625.655 29.881 624.562 29.1622C623.484 28.4291 621.781 27.7966 619.452 27.2647L615.161 26.2944C612.358 25.6619 610.374 24.9647 609.21 24.2028C607.197 22.8804 606.191 20.9038 606.191 18.2732C606.191 15.4269 607.176 13.091 609.145 11.2654C611.115 9.43975 613.903 8.52694 617.512 8.52694C620.832 8.52694 623.65 9.33194 625.964 10.9419C628.293 12.5376 629.457 15.0963 629.457 18.6182H625.425C625.209 16.9219 624.749 15.621 624.045 14.7154C622.737 13.0622 620.516 12.2357 617.382 12.2357C614.852 12.2357 613.034 12.7676 611.927 13.8313C610.82 14.8951 610.267 16.1313 610.267 17.54C610.267 19.0925 610.913 20.2282 612.207 20.9469C613.055 21.4069 614.974 21.9819 617.964 22.6719L622.406 23.6853C624.548 24.1741 626.201 24.8425 627.366 25.6907C629.378 27.1713 630.384 29.3203 630.384 32.1378C630.384 35.6453 629.105 38.1538 626.546 39.6631C624.002 41.1725 621.242 41.9272 618.266 41.9272L616.951 43.76C617.368 43.6306 617.907 43.5659 618.568 43.5659C619.574 43.5659 620.401 43.8534 621.048 44.4284C621.709 45.0178 622.04 45.8516 622.04 46.9297C622.04 48.0222 621.608 48.9637 620.746 49.7544C619.883 50.545 618.561 50.9403 616.778 50.9403C616.017 50.9403 615.226 50.8325 614.407 50.6169C613.947 50.5019 613.328 50.3006 612.552 50.0131L613.307 48.2665C613.853 48.4678 614.277 48.6115 614.579 48.6978C615.168 48.8559 615.7 48.935 616.175 48.935C616.707 48.935 617.167 48.8559 617.555 48.6978C618.302 48.3959 618.676 47.8497 618.676 47.059C618.676 46.5991 618.482 46.1966 618.094 45.8516C617.72 45.5209 617.217 45.3556 616.584 45.3556C616.268 45.3556 615.981 45.3844 615.722 45.4419C615.477 45.4994 615.183 45.5928 614.838 45.7222L614.083 44.8381L616.218 41.9272C613.242 41.9272 610.64 40.9281 608.412 38.93C606.184 36.9175 605.092 34.2006 605.135 30.7794H609.167ZM635.904 37.7009C635.128 36.5366 634.611 35.1781 634.352 33.6256C634.122 32.5619 634.007 30.8656 634.007 28.5369H650.933C650.861 26.1938 650.308 24.3178 649.273 22.9091C648.238 21.486 646.635 20.7744 644.465 20.7744C642.438 20.7744 640.821 21.4429 639.613 22.7797C638.923 23.556 638.434 24.4544 638.147 25.475H634.33C634.431 24.6269 634.761 23.6853 635.322 22.6504C635.897 21.601 636.537 20.7457 637.241 20.0844C638.42 18.9344 639.879 18.1582 641.618 17.7557C642.553 17.5257 643.609 17.4107 644.788 17.4107C647.663 17.4107 650.1 18.46 652.098 20.5588C654.096 22.6432 655.095 25.5685 655.095 29.3347C655.095 33.0435 654.089 36.055 652.076 38.3694C650.064 40.6838 647.433 41.8409 644.184 41.8409C642.546 41.8409 640.957 41.46 639.419 40.6981C637.881 39.9219 636.709 38.9228 635.904 37.7009ZM637.996 31.6203C638.154 33.3022 638.521 34.6463 639.096 35.6525C640.159 37.5213 641.935 38.4556 644.421 38.4556C646.204 38.4556 647.699 37.8159 648.906 36.5366C650.114 35.2428 650.754 33.6041 650.826 31.6203H637.996ZM657.682 17.9066H662.706L668.011 26.0357L673.38 17.9066L678.102 18.0144L670.318 29.1622L678.447 41H673.488L667.752 32.3319L662.189 41H657.273L665.402 29.1622L657.682 17.9066ZM684.269 33.755C684.384 35.0488 684.707 36.0406 685.239 36.7306C686.217 37.9813 687.913 38.6066 690.328 38.6066C691.765 38.6066 693.03 38.2975 694.123 37.6794C695.215 37.0469 695.762 36.0766 695.762 34.7685C695.762 33.7766 695.323 33.0219 694.446 32.5044C693.886 32.1881 692.779 31.8216 691.126 31.4047L688.042 30.6285C686.073 30.1397 684.621 29.5935 683.687 28.9897C682.019 27.9403 681.185 26.4885 681.185 24.6341C681.185 22.4491 681.969 20.681 683.536 19.3297C685.117 17.9785 687.237 17.3029 689.897 17.3029C693.375 17.3029 695.884 18.3235 697.422 20.3647C698.385 21.6585 698.852 23.0528 698.824 24.5478H695.158C695.086 23.671 694.777 22.8732 694.231 22.1544C693.339 21.1338 691.794 20.6235 689.595 20.6235C688.129 20.6235 687.015 20.9038 686.253 21.4644C685.505 22.025 685.131 22.7654 685.131 23.6853C685.131 24.6916 685.627 25.4966 686.619 26.1003C687.194 26.4597 688.042 26.776 689.164 27.0491L691.729 27.6744C694.518 28.35 696.387 29.0041 697.336 29.6366C698.845 30.6285 699.6 32.1881 699.6 34.3156C699.6 36.3713 698.816 38.1466 697.249 39.6416C695.697 41.1366 693.325 41.8841 690.134 41.8841C686.698 41.8841 684.262 41.1078 682.824 39.5553C681.401 37.9884 680.639 36.055 680.539 33.755H684.269ZM704.042 18.0144H707.988V41H704.042V18.0144ZM704.042 9.32475H707.988V13.7235H704.042V9.32475ZM726.165 18.0144H730.111V41H726.165V18.0144ZM726.165 9.32475H730.111V13.7235H726.165V9.32475ZM735.997 17.9066H739.684V21.1841C740.777 19.8329 741.934 18.8625 743.156 18.2732C744.378 17.6838 745.736 17.3891 747.231 17.3891C750.509 17.3891 752.723 18.5319 753.873 20.8175C754.505 22.0682 754.821 23.8578 754.821 26.1866V41H750.875V26.4453C750.875 25.0366 750.667 23.901 750.25 23.0385C749.56 21.601 748.309 20.8822 746.498 20.8822C745.578 20.8822 744.823 20.9757 744.234 21.1625C743.17 21.4788 742.236 22.1113 741.431 23.06C740.784 23.8219 740.36 24.6125 740.159 25.4319C739.972 26.2369 739.878 27.3941 739.878 28.9035V41H735.997V17.9066ZM760.492 9.32475H764.222V27.7175L774.184 17.9066H779.144L770.303 26.5532L779.64 41H774.68L767.478 29.3563L764.222 32.3319V41H760.492V9.32475ZM782.658 18.0144H786.604V41H782.658V18.0144ZM782.658 9.32475H786.604V13.7235H782.658V9.32475ZM794.798 33.755C794.913 35.0488 795.236 36.0406 795.768 36.7306C796.746 37.9813 798.442 38.6066 800.857 38.6066C802.295 38.6066 803.56 38.2975 804.652 37.6794C805.745 37.0469 806.291 36.0766 806.291 34.7685C806.291 33.7766 805.852 33.0219 804.976 32.5044C804.415 32.1881 803.308 31.8216 801.655 31.4047L798.571 30.6285C796.602 30.1397 795.15 29.5935 794.216 28.9897C792.548 27.9403 791.715 26.4885 791.715 24.6341C791.715 22.4491 792.498 20.681 794.065 19.3297C795.646 17.9785 797.766 17.3029 800.426 17.3029C803.905 17.3029 806.413 18.3235 807.951 20.3647C808.914 21.6585 809.381 23.0528 809.353 24.5478H805.687C805.615 23.671 805.306 22.8732 804.76 22.1544C803.869 21.1338 802.323 20.6235 800.124 20.6235C798.658 20.6235 797.544 20.9038 796.782 21.4644C796.034 22.025 795.661 22.7654 795.661 23.6853C795.661 24.6916 796.156 25.4966 797.148 26.1003C797.723 26.4597 798.571 26.776 799.693 27.0491L802.259 27.6744C805.047 28.35 806.916 29.0041 807.865 29.6366C809.374 30.6285 810.129 32.1881 810.129 34.3156C810.129 36.3713 809.346 38.1466 807.779 39.6416C806.226 41.1366 804.063 41.8841 801.288 41.8841L799.908 43.76C800.325 43.6306 800.864 43.5659 801.526 43.5659C802.532 43.5659 803.358 43.8534 804.005 44.4284C804.666 45.0178 804.997 45.8516 804.997 46.9297C804.997 48.0222 804.566 48.9637 803.703 49.7544C802.841 50.545 801.518 50.9403 799.736 50.9403C798.974 50.9403 798.183 50.8325 797.364 50.6169C796.904 50.5019 796.286 50.3006 795.51 50.0131L796.264 48.2665C796.811 48.4678 797.235 48.6115 797.536 48.6978C798.126 48.8559 798.658 48.935 799.132 48.935C799.664 48.935 800.124 48.8559 800.512 48.6978C801.26 48.3959 801.633 47.8497 801.633 47.059C801.633 46.5991 801.439 46.1966 801.051 45.8516C800.677 45.5209 800.174 45.3556 799.542 45.3556C799.226 45.3556 798.938 45.3844 798.679 45.4419C798.435 45.4994 798.14 45.5928 797.795 45.7222L797.041 44.8381L799.197 41.8841C796.739 41.8841 794.791 41.1078 793.353 39.5553C791.93 37.9884 791.168 36.055 791.068 33.755H794.798ZM817.546 34.8547C817.546 35.9759 817.956 36.86 818.775 37.5069C819.595 38.1538 820.565 38.4772 821.686 38.4772C823.052 38.4772 824.375 38.1609 825.654 37.5284C827.81 36.4791 828.888 34.7613 828.888 32.375V29.2485C828.414 29.5503 827.803 29.8019 827.055 30.0031C826.308 30.2044 825.575 30.3481 824.856 30.4344L822.506 30.7363C821.097 30.9231 820.04 31.2178 819.336 31.6203C818.143 32.296 817.546 33.3741 817.546 34.8547ZM826.948 27.006C827.839 26.891 828.435 26.5172 828.737 25.8847C828.91 25.5397 828.996 25.0438 828.996 24.3969C828.996 23.0744 828.522 22.1185 827.573 21.5291C826.639 20.9254 825.295 20.6235 823.541 20.6235C821.514 20.6235 820.076 21.1697 819.228 22.2622C818.754 22.866 818.445 23.7644 818.301 24.9575H814.679C814.75 22.1113 815.67 20.1347 817.439 19.0279C819.221 17.9066 821.284 17.346 823.627 17.346C826.344 17.346 828.55 17.8635 830.247 18.8985C831.929 19.9335 832.77 21.5435 832.77 23.7285V37.0325C832.77 37.435 832.849 37.7584 833.007 38.0028C833.179 38.2472 833.531 38.3694 834.063 38.3694C834.236 38.3694 834.43 38.3622 834.645 38.3478C834.861 38.3191 835.091 38.2831 835.335 38.24V41.1078C834.732 41.2803 834.272 41.3881 833.955 41.4312C833.639 41.4744 833.208 41.4959 832.662 41.4959C831.325 41.4959 830.355 41.0216 829.751 40.0728C829.435 39.5697 829.212 38.8581 829.082 37.9381C828.292 38.9731 827.156 39.8716 825.675 40.6334C824.195 41.3953 822.563 41.7762 820.781 41.7762C818.639 41.7762 816.885 41.1294 815.52 39.8356C814.168 38.5275 813.493 36.8959 813.493 34.941C813.493 32.7991 814.161 31.1388 815.498 29.96C816.835 28.7813 818.589 28.0553 820.759 27.7822L826.948 27.006ZM840.122 14.3919C840.18 12.7819 840.46 11.6032 840.963 10.8557C841.869 9.53319 843.615 8.87194 846.203 8.87194C846.447 8.87194 846.699 8.87913 846.958 8.8935C847.216 8.90788 847.511 8.92944 847.842 8.95819V12.4944C847.439 12.4657 847.144 12.4513 846.958 12.4513C846.785 12.4369 846.62 12.4297 846.462 12.4297C845.283 12.4297 844.579 12.7388 844.349 13.3569C844.119 13.9607 844.004 15.5132 844.004 18.0144H847.842V21.0763H843.96V41H840.122V21.0763H836.91V18.0144H840.122V14.3919Z" fill="black"/>
<path d="M1167.17 476.779C1167.27 478.576 1167.69 480.035 1168.44 481.157C1169.86 483.255 1172.37 484.305 1175.96 484.305C1177.57 484.305 1179.04 484.075 1180.36 483.615C1182.92 482.723 1184.2 481.128 1184.2 478.828C1184.2 477.103 1183.66 475.874 1182.58 475.141C1181.49 474.422 1179.78 473.797 1177.45 473.265L1173.16 472.294C1170.36 471.662 1168.37 470.965 1167.21 470.203C1165.2 468.88 1164.19 466.904 1164.19 464.273C1164.19 461.427 1165.18 459.091 1167.15 457.265C1169.11 455.44 1171.9 454.527 1175.51 454.527C1178.83 454.527 1181.65 455.332 1183.96 456.942C1186.29 458.538 1187.46 461.096 1187.46 464.618H1183.42C1183.21 462.922 1182.75 461.621 1182.04 460.715C1180.74 459.062 1178.52 458.236 1175.38 458.236C1172.85 458.236 1171.03 458.768 1169.93 459.831C1168.82 460.895 1168.27 462.131 1168.27 463.54C1168.27 465.093 1168.91 466.228 1170.21 466.947C1171.06 467.407 1172.97 467.982 1175.96 468.672L1180.41 469.685C1182.55 470.174 1184.2 470.843 1185.37 471.691C1187.38 473.171 1188.38 475.32 1188.38 478.138C1188.38 481.645 1187.1 484.154 1184.55 485.663C1182 487.172 1179.04 487.927 1175.66 487.927C1171.72 487.927 1168.64 486.921 1166.41 484.908C1164.18 482.91 1163.09 480.201 1163.13 476.779H1167.17ZM1202.46 484.499C1205.04 484.499 1206.8 483.528 1207.75 481.588C1208.71 479.633 1209.19 477.462 1209.19 475.076C1209.19 472.92 1208.85 471.166 1208.16 469.815C1207.06 467.687 1205.18 466.623 1202.51 466.623C1200.14 466.623 1198.41 467.529 1197.33 469.34C1196.25 471.152 1195.72 473.337 1195.72 475.895C1195.72 478.353 1196.25 480.402 1197.33 482.041C1198.41 483.679 1200.12 484.499 1202.46 484.499ZM1202.62 463.238C1205.59 463.238 1208.11 464.23 1210.16 466.214C1212.22 468.198 1213.25 471.116 1213.25 474.968C1213.25 478.691 1212.34 481.768 1210.53 484.197C1208.72 486.626 1205.91 487.841 1202.1 487.841C1198.92 487.841 1196.4 486.77 1194.53 484.628C1192.66 482.472 1191.73 479.583 1191.73 475.96C1191.73 472.079 1192.71 468.988 1194.68 466.688C1196.65 464.388 1199.29 463.238 1202.62 463.238ZM1220.19 479.755C1220.3 481.049 1220.63 482.041 1221.16 482.731C1222.14 483.981 1223.83 484.607 1226.25 484.607C1227.69 484.607 1228.95 484.298 1230.04 483.679C1231.14 483.047 1231.68 482.077 1231.68 480.768C1231.68 479.777 1231.24 479.022 1230.37 478.504C1229.81 478.188 1228.7 477.822 1227.05 477.405L1223.96 476.628C1221.99 476.14 1220.54 475.593 1219.61 474.99C1217.94 473.94 1217.11 472.488 1217.11 470.634C1217.11 468.449 1217.89 466.681 1219.46 465.33C1221.04 463.978 1223.16 463.303 1225.82 463.303C1229.3 463.303 1231.8 464.323 1233.34 466.365C1234.31 467.658 1234.77 469.053 1234.74 470.548H1231.08C1231.01 469.671 1230.7 468.873 1230.15 468.154C1229.26 467.134 1227.71 466.623 1225.51 466.623C1224.05 466.623 1222.93 466.904 1222.17 467.464C1221.43 468.025 1221.05 468.765 1221.05 469.685C1221.05 470.692 1221.55 471.497 1222.54 472.1C1223.11 472.46 1223.96 472.776 1225.08 473.049L1227.65 473.674C1230.44 474.35 1232.31 475.004 1233.26 475.637C1234.77 476.628 1235.52 478.188 1235.52 480.316C1235.52 482.371 1234.74 484.147 1233.17 485.642C1231.62 487.137 1229.25 487.884 1226.05 487.884C1222.62 487.884 1220.18 487.108 1218.74 485.555C1217.32 483.988 1216.56 482.055 1216.46 479.755H1220.19ZM1239.96 464.014H1243.91V487H1239.96V464.014ZM1239.96 455.325H1243.91V459.723H1239.96V455.325ZM1252.77 480.855C1252.77 481.976 1253.18 482.86 1254 483.507C1254.82 484.154 1255.79 484.477 1256.91 484.477C1258.28 484.477 1259.6 484.161 1260.88 483.528C1263.03 482.479 1264.11 480.761 1264.11 478.375V475.248C1263.64 475.55 1263.03 475.802 1262.28 476.003C1261.53 476.204 1260.8 476.348 1260.08 476.434L1257.73 476.736C1256.32 476.923 1255.26 477.218 1254.56 477.62C1253.37 478.296 1252.77 479.374 1252.77 480.855ZM1262.17 473.006C1263.06 472.891 1263.66 472.517 1263.96 471.885C1264.13 471.54 1264.22 471.044 1264.22 470.397C1264.22 469.074 1263.75 468.118 1262.8 467.529C1261.86 466.925 1260.52 466.623 1258.76 466.623C1256.74 466.623 1255.3 467.17 1254.45 468.262C1253.98 468.866 1253.67 469.764 1253.52 470.958H1249.9C1249.97 468.111 1250.89 466.135 1252.66 465.028C1254.44 463.907 1256.51 463.346 1258.85 463.346C1261.57 463.346 1263.77 463.863 1265.47 464.898C1267.15 465.933 1267.99 467.543 1267.99 469.728V483.033C1267.99 483.435 1268.07 483.758 1268.23 484.003C1268.4 484.247 1268.75 484.369 1269.29 484.369C1269.46 484.369 1269.65 484.362 1269.87 484.348C1270.08 484.319 1270.31 484.283 1270.56 484.24V487.108C1269.96 487.28 1269.5 487.388 1269.18 487.431C1268.86 487.474 1268.43 487.496 1267.89 487.496C1266.55 487.496 1265.58 487.022 1264.97 486.073C1264.66 485.57 1264.44 484.858 1264.31 483.938C1263.52 484.973 1262.38 485.872 1260.9 486.633C1259.42 487.395 1257.79 487.776 1256 487.776C1253.86 487.776 1252.11 487.129 1250.74 485.836C1249.39 484.528 1248.72 482.896 1248.72 480.941C1248.72 478.799 1249.38 477.139 1250.72 475.96C1252.06 474.781 1253.81 474.055 1255.98 473.782L1262.17 473.006ZM1274.48 455.325H1278.36V487H1274.48V455.325Z" fill="black"/>
<path d="M185.971 438.218H190.305V451.306H206.778V438.218H211.112V469.893H206.778V455.079H190.305V469.893H185.971V438.218ZM217.861 466.594C217.085 465.429 216.568 464.071 216.309 462.518C216.079 461.455 215.964 459.758 215.964 457.43H232.89C232.819 455.087 232.265 453.211 231.23 451.802C230.195 450.379 228.592 449.667 226.422 449.667C224.395 449.667 222.778 450.336 221.57 451.673C220.88 452.449 220.391 453.347 220.104 454.368H216.287C216.388 453.52 216.719 452.578 217.279 451.543C217.854 450.494 218.494 449.638 219.198 448.977C220.377 447.827 221.836 447.051 223.576 446.648C224.51 446.418 225.566 446.303 226.745 446.303C229.62 446.303 232.057 447.353 234.055 449.452C236.053 451.536 237.052 454.461 237.052 458.228C237.052 461.936 236.046 464.948 234.033 467.262C232.021 469.577 229.39 470.734 226.141 470.734C224.503 470.734 222.914 470.353 221.376 469.591C219.838 468.815 218.666 467.816 217.861 466.594ZM219.953 460.513C220.111 462.195 220.478 463.539 221.053 464.545C222.116 466.414 223.892 467.348 226.379 467.348C228.161 467.348 229.656 466.709 230.864 465.429C232.071 464.136 232.711 462.497 232.783 460.513H219.953ZM241.947 446.799H245.634V450.788C245.936 450.012 246.676 449.071 247.855 447.964C249.034 446.843 250.392 446.282 251.93 446.282C252.002 446.282 252.124 446.289 252.297 446.303C252.469 446.318 252.764 446.347 253.181 446.39V450.487C252.951 450.443 252.735 450.415 252.534 450.4C252.347 450.386 252.139 450.379 251.909 450.379C249.954 450.379 248.451 451.011 247.402 452.276C246.353 453.527 245.828 454.972 245.828 456.61V469.893H241.947V446.799ZM256.243 438.11H260.016V449.603C260.864 448.496 261.878 447.655 263.056 447.08C264.235 446.49 265.514 446.196 266.894 446.196C269.769 446.196 272.098 447.188 273.881 449.171C275.678 451.141 276.576 454.052 276.576 457.904C276.576 461.555 275.692 464.588 273.924 467.003C272.156 469.418 269.705 470.626 266.571 470.626C264.817 470.626 263.337 470.202 262.129 469.354C261.41 468.851 260.641 468.046 259.822 466.939V469.893H256.243V438.11ZM266.334 467.198C268.433 467.198 269.999 466.364 271.034 464.696C272.084 463.029 272.609 460.829 272.609 458.098C272.609 455.669 272.084 453.656 271.034 452.061C269.999 450.465 268.469 449.667 266.442 449.667C264.674 449.667 263.121 450.321 261.784 451.629C260.462 452.938 259.8 455.094 259.8 458.098C259.8 460.269 260.074 462.03 260.62 463.381C261.64 465.925 263.545 467.198 266.334 467.198ZM281.126 446.907H285.072V469.893H281.126V446.907ZM281.126 438.218H285.072V442.616H281.126V438.218Z" fill="black"/>
<path d="M4.84237 494.928L11.0092 513.73L17.4564 494.928H21.7042L12.993 518.021H8.85299L0.33582 494.928H4.84237ZM25.6286 514.722C24.8523 513.558 24.3348 512.199 24.0761 510.647C23.8461 509.583 23.7311 507.887 23.7311 505.558H40.6576C40.5857 503.215 40.0323 501.339 38.9973 499.93C37.9623 498.507 36.3595 497.796 34.1889 497.796C32.162 497.796 30.5448 498.464 29.3373 499.801C28.6473 500.577 28.1586 501.476 27.8711 502.496H24.0545C24.1551 501.648 24.4858 500.707 25.0464 499.672C25.6214 498.622 26.2611 497.767 26.9655 497.106C28.1442 495.956 29.6033 495.179 31.3426 494.777C32.277 494.547 33.3336 494.432 34.5123 494.432C37.3873 494.432 39.8239 495.481 41.822 497.58C43.8201 499.664 44.8192 502.59 44.8192 506.356C44.8192 510.065 43.8129 513.076 41.8004 515.391C39.7879 517.705 37.1573 518.862 33.9086 518.862C32.2698 518.862 30.6814 518.481 29.1433 517.719C27.6051 516.943 26.4336 515.944 25.6286 514.722ZM27.7201 508.642C27.8783 510.323 28.2448 511.668 28.8198 512.674C29.8836 514.542 31.6589 515.477 34.1457 515.477C35.9282 515.477 37.4232 514.837 38.6307 513.558C39.8382 512.264 40.4779 510.625 40.5498 508.642H27.7201ZM50.3823 488.481H54.3066V494.928H57.9938V498.098H54.3066V513.17C54.3066 513.975 54.5798 514.514 55.126 514.787C55.4279 514.945 55.931 515.024 56.6354 515.024C56.8223 515.024 57.0235 515.024 57.2391 515.024C57.4548 515.01 57.7063 514.988 57.9938 514.959V518.021C57.5482 518.151 57.081 518.244 56.5923 518.302C56.1179 518.359 55.6004 518.388 55.0398 518.388C53.2285 518.388 51.9995 517.928 51.3526 517.008C50.7057 516.073 50.3823 514.866 50.3823 513.385V498.098H47.2557V494.928H50.3823V488.481ZM62.5004 514.722C61.7241 513.558 61.2066 512.199 60.9479 510.647C60.7179 509.583 60.6029 507.887 60.6029 505.558H77.5294C77.4575 503.215 76.9041 501.339 75.8691 499.93C74.8341 498.507 73.2313 497.796 71.0607 497.796C69.0338 497.796 67.4166 498.464 66.2091 499.801C65.5191 500.577 65.0304 501.476 64.7429 502.496H60.9263C61.0269 501.648 61.3576 500.707 61.9182 499.672C62.4932 498.622 63.1329 497.767 63.8372 497.106C65.016 495.956 66.4751 495.179 68.2144 494.777C69.1488 494.547 70.2054 494.432 71.3841 494.432C74.2591 494.432 76.6957 495.481 78.6938 497.58C80.6919 499.664 81.691 502.59 81.691 506.356C81.691 510.065 80.6847 513.076 78.6722 515.391C76.6597 517.705 74.0291 518.862 70.7804 518.862C69.1416 518.862 67.5532 518.481 66.0151 517.719C64.4769 516.943 63.3054 515.944 62.5004 514.722ZM64.5919 508.642C64.7501 510.323 65.1166 511.668 65.6916 512.674C66.7554 514.542 68.5307 515.477 71.0175 515.477C72.8 515.477 74.295 514.837 75.5025 513.558C76.71 512.264 77.3497 510.625 77.4216 508.642H64.5919ZM86.4778 494.928H90.165V498.205C91.2575 496.854 92.4147 495.884 93.6366 495.294C94.8584 494.705 96.2169 494.41 97.7119 494.41C100.989 494.41 103.203 495.553 104.353 497.839C104.986 499.089 105.302 500.879 105.302 503.208V518.021H101.356V503.467C101.356 502.058 101.147 500.922 100.731 500.06C100.041 498.622 98.79 497.903 96.9787 497.903C96.0587 497.903 95.3041 497.997 94.7147 498.184C93.6509 498.5 92.7166 499.133 91.9116 500.081C91.2647 500.843 90.8406 501.634 90.6394 502.453C90.4525 503.258 90.3591 504.415 90.3591 505.925V518.021H86.4778V494.928ZM120.805 515.412C122.617 515.412 124.119 514.657 125.312 513.148C126.519 511.624 127.123 509.353 127.123 506.334C127.123 504.494 126.857 502.913 126.325 501.591C125.319 499.046 123.479 497.774 120.805 497.774C118.117 497.774 116.277 499.118 115.285 501.806C114.753 503.244 114.487 505.069 114.487 507.283C114.487 509.066 114.753 510.582 115.285 511.833C116.292 514.219 118.132 515.412 120.805 515.412ZM110.757 495.036H114.531V498.098C115.307 497.048 116.155 496.236 117.075 495.661C118.383 494.798 119.921 494.367 121.689 494.367C124.306 494.367 126.526 495.373 128.352 497.386C130.178 499.384 131.091 502.245 131.091 505.968C131.091 510.999 129.775 514.593 127.145 516.749C125.477 518.115 123.537 518.797 121.323 518.797C119.583 518.797 118.124 518.417 116.946 517.655C116.256 517.223 115.487 516.483 114.638 515.434V527.228H110.757V495.036ZM136.244 514.722C135.468 513.558 134.95 512.199 134.691 510.647C134.461 509.583 134.346 507.887 134.346 505.558H151.273C151.201 503.215 150.648 501.339 149.613 499.93C148.578 498.507 146.975 497.796 144.804 497.796C142.777 497.796 141.16 498.464 139.953 499.801C139.263 500.577 138.774 501.476 138.486 502.496H134.67C134.771 501.648 135.101 500.707 135.662 499.672C136.237 498.622 136.876 497.767 137.581 497.106C138.76 495.956 140.219 495.179 141.958 494.777C142.892 494.547 143.949 494.432 145.128 494.432C148.003 494.432 150.439 495.481 152.437 497.58C154.436 499.664 155.435 502.59 155.435 506.356C155.435 510.065 154.428 513.076 152.416 515.391C150.403 517.705 147.773 518.862 144.524 518.862C142.885 518.862 141.297 518.481 139.759 517.719C138.221 516.943 137.049 515.944 136.244 514.722ZM138.336 508.642C138.494 510.323 138.86 511.668 139.435 512.674C140.499 514.542 142.274 515.477 144.761 515.477C146.544 515.477 148.039 514.837 149.246 513.558C150.454 512.264 151.093 510.625 151.165 508.642H138.336ZM160.329 494.928H164.016V498.917C164.318 498.141 165.059 497.199 166.237 496.092C167.416 494.971 168.775 494.41 170.313 494.41C170.385 494.41 170.507 494.418 170.679 494.432C170.852 494.446 171.146 494.475 171.563 494.518V498.615C171.333 498.572 171.118 498.543 170.916 498.529C170.73 498.514 170.521 498.507 170.291 498.507C168.336 498.507 166.834 499.14 165.785 500.405C164.735 501.655 164.21 503.1 164.21 504.739V518.021H160.329V494.928ZM176.825 494.928L182.991 513.73L189.439 494.928H193.686L184.975 518.021H180.835L172.318 494.928H176.825ZM197.611 514.722C196.834 513.558 196.317 512.199 196.058 510.647C195.828 509.583 195.713 507.887 195.713 505.558H212.64C212.568 503.215 212.014 501.339 210.979 499.93C209.944 498.507 208.342 497.796 206.171 497.796C204.144 497.796 202.527 498.464 201.319 499.801C200.629 500.577 200.141 501.476 199.853 502.496H196.037C196.137 501.648 196.468 500.707 197.029 499.672C197.604 498.622 198.243 497.767 198.948 497.106C200.126 495.956 201.585 495.179 203.325 494.777C204.259 494.547 205.316 494.432 206.494 494.432C209.369 494.432 211.806 495.481 213.804 497.58C215.802 499.664 216.801 502.59 216.801 506.356C216.801 510.065 215.795 513.076 213.783 515.391C211.77 517.705 209.139 518.862 205.891 518.862C204.252 518.862 202.664 518.481 201.125 517.719C199.587 516.943 198.416 515.944 197.611 514.722ZM199.702 508.642C199.86 510.323 200.227 511.668 200.802 512.674C201.866 514.542 203.641 515.477 206.128 515.477C207.91 515.477 209.405 514.837 210.613 513.558C211.82 512.264 212.46 510.625 212.532 508.642H199.702ZM221.696 494.928H225.383V498.917C225.685 498.141 226.425 497.199 227.604 496.092C228.783 494.971 230.141 494.41 231.679 494.41C231.751 494.41 231.873 494.418 232.046 494.432C232.218 494.446 232.513 494.475 232.93 494.518V498.615C232.7 498.572 232.484 498.543 232.283 498.529C232.096 498.514 231.888 498.507 231.658 498.507C229.703 498.507 228.201 499.14 227.151 500.405C226.102 501.655 225.577 503.1 225.577 504.739V518.021H221.696V494.928ZM236.402 486.346H240.283V518.021H236.402V486.346ZM246.126 495.036H250.072V518.021H246.126V495.036ZM246.126 486.346H250.072V490.745H246.126V486.346ZM255.872 486.346H259.603V504.739L269.565 494.928H274.524L265.683 503.574L275.02 518.021H270.061L262.859 506.378L259.603 509.353V518.021H255.872V486.346Z" fill="black"/>
<path d="M1012.27 782.715C1014.08 782.715 1015.49 782.463 1016.49 781.96C1018.07 781.17 1018.86 779.747 1018.86 777.691C1018.86 775.621 1018.02 774.227 1016.34 773.508C1015.39 773.105 1013.98 772.904 1012.12 772.904H1004.46V782.715H1012.27ZM1013.71 797.334C1016.34 797.334 1018.22 796.573 1019.34 795.049C1020.04 794.086 1020.4 792.921 1020.4 791.556C1020.4 789.256 1019.37 787.689 1017.31 786.855C1016.22 786.409 1014.77 786.187 1012.98 786.187H1004.46V797.334H1013.71ZM1000.26 769.325H1013.86C1017.57 769.325 1020.21 770.432 1021.78 772.645C1022.7 773.953 1023.16 775.463 1023.16 777.173C1023.16 779.172 1022.59 780.81 1021.45 782.09C1020.86 782.765 1020.01 783.383 1018.91 783.944C1020.53 784.562 1021.75 785.259 1022.55 786.036C1023.97 787.416 1024.69 789.32 1024.69 791.75C1024.69 793.791 1024.05 795.638 1022.77 797.291C1020.86 799.764 1017.81 801 1013.65 801H1000.26V769.325ZM1038.92 777.389C1040.56 777.389 1042.14 777.777 1043.68 778.553C1045.22 779.315 1046.39 780.307 1047.2 781.529C1047.97 782.693 1048.49 784.052 1048.75 785.604C1048.98 786.668 1049.09 788.364 1049.09 790.693H1032.17C1032.24 793.036 1032.79 794.919 1033.83 796.343C1034.86 797.751 1036.47 798.456 1038.64 798.456C1040.66 798.456 1042.28 797.787 1043.49 796.45C1044.18 795.674 1044.67 794.776 1044.95 793.755H1048.77C1048.67 794.603 1048.33 795.552 1047.76 796.601C1047.2 797.636 1046.56 798.484 1045.86 799.146C1044.68 800.296 1043.22 801.072 1041.48 801.474C1040.55 801.704 1039.49 801.819 1038.31 801.819C1035.44 801.819 1033 800.777 1031 798.693C1029.01 796.594 1028.01 793.662 1028.01 789.895C1028.01 786.187 1029.01 783.175 1031.03 780.861C1033.04 778.546 1035.67 777.389 1038.92 777.389ZM1045.11 787.61C1044.95 785.928 1044.58 784.584 1044.01 783.578C1042.94 781.709 1041.17 780.774 1038.68 780.774C1036.9 780.774 1035.4 781.421 1034.2 782.715C1032.99 783.994 1032.35 785.626 1032.28 787.61H1045.11ZM1068.31 777.907H1072.6C1072.05 779.387 1070.84 782.765 1068.95 788.041C1067.55 792.008 1066.37 795.243 1065.42 797.744C1063.18 803.638 1061.59 807.232 1060.67 808.525C1059.75 809.819 1058.17 810.466 1055.93 810.466C1055.38 810.466 1054.96 810.444 1054.66 810.401C1054.37 810.358 1054.01 810.279 1053.58 810.164V806.628C1054.26 806.815 1054.74 806.93 1055.05 806.973C1055.35 807.016 1055.61 807.037 1055.84 807.037C1056.56 807.037 1057.09 806.915 1057.42 806.671C1057.76 806.441 1058.05 806.153 1058.28 805.808C1058.35 805.693 1058.61 805.104 1059.06 804.04C1059.5 802.977 1059.83 802.186 1060.03 801.668L1051.49 777.907H1055.89L1062.08 796.709L1068.31 777.907ZM1075.96 777.907H1079.65V781.184C1080.74 779.833 1081.9 778.863 1083.12 778.273C1084.34 777.684 1085.7 777.389 1087.2 777.389C1090.47 777.389 1092.69 778.532 1093.84 780.818C1094.47 782.068 1094.79 783.858 1094.79 786.187V801H1090.84V786.445C1090.84 785.037 1090.63 783.901 1090.21 783.038C1089.52 781.601 1088.27 780.882 1086.46 780.882C1085.54 780.882 1084.79 780.976 1084.2 781.163C1083.13 781.479 1082.2 782.111 1081.4 783.06C1080.75 783.822 1080.32 784.613 1080.12 785.432C1079.94 786.237 1079.84 787.394 1079.84 788.903V801H1075.96V777.907ZM1101.15 797.701C1100.37 796.537 1099.85 795.178 1099.59 793.626C1099.36 792.562 1099.25 790.866 1099.25 788.537H1116.18C1116.1 786.194 1115.55 784.318 1114.52 782.909C1113.48 781.486 1111.88 780.774 1109.71 780.774C1107.68 780.774 1106.06 781.443 1104.86 782.78C1104.17 783.556 1103.68 784.454 1103.39 785.475H1099.57C1099.67 784.627 1100 783.685 1100.56 782.65C1101.14 781.601 1101.78 780.746 1102.48 780.084C1103.66 778.934 1105.12 778.158 1106.86 777.756C1107.8 777.526 1108.85 777.411 1110.03 777.411C1112.91 777.411 1115.34 778.46 1117.34 780.559C1119.34 782.643 1120.34 785.568 1120.34 789.335C1120.34 793.043 1119.33 796.055 1117.32 798.369C1115.31 800.684 1112.68 801.841 1109.43 801.841C1107.79 801.841 1106.2 801.46 1104.66 800.698C1103.12 799.922 1101.95 798.923 1101.15 797.701ZM1103.24 791.62C1103.4 793.302 1103.76 794.646 1104.34 795.653C1105.4 797.521 1107.18 798.456 1109.66 798.456C1111.45 798.456 1112.94 797.816 1114.15 796.537C1115.36 795.243 1116 793.604 1116.07 791.62H1103.24ZM1125.23 769.325H1129.11V801H1125.23V769.325ZM1132.76 777.907H1137.78L1143.09 786.036L1148.45 777.907L1153.18 778.014L1145.39 789.162L1153.52 801H1148.56L1142.83 792.332L1137.26 801H1132.35L1140.48 789.162L1132.76 777.907ZM1160.01 794.855C1160.01 795.976 1160.42 796.86 1161.24 797.507C1162.06 798.154 1163.03 798.477 1164.15 798.477C1165.52 798.477 1166.84 798.161 1168.12 797.528C1170.28 796.479 1171.35 794.761 1171.35 792.375V789.248C1170.88 789.55 1170.27 789.802 1169.52 790.003C1168.77 790.204 1168.04 790.348 1167.32 790.434L1164.97 790.736C1163.56 790.923 1162.51 791.218 1161.8 791.62C1160.61 792.296 1160.01 793.374 1160.01 794.855ZM1169.41 787.006C1170.3 786.891 1170.9 786.517 1171.2 785.885C1171.38 785.54 1171.46 785.044 1171.46 784.397C1171.46 783.074 1170.99 782.118 1170.04 781.529C1169.1 780.925 1167.76 780.623 1166.01 780.623C1163.98 780.623 1162.54 781.17 1161.69 782.262C1161.22 782.866 1160.91 783.764 1160.77 784.958H1157.14C1157.22 782.111 1158.14 780.135 1159.9 779.028C1161.69 777.907 1163.75 777.346 1166.09 777.346C1168.81 777.346 1171.02 777.863 1172.71 778.898C1174.39 779.933 1175.24 781.543 1175.24 783.728V797.033C1175.24 797.435 1175.31 797.758 1175.47 798.003C1175.64 798.247 1176 798.369 1176.53 798.369C1176.7 798.369 1176.9 798.362 1177.11 798.348C1177.33 798.319 1177.56 798.283 1177.8 798.24V801.108C1177.2 801.28 1176.74 801.388 1176.42 801.431C1176.1 801.474 1175.67 801.496 1175.13 801.496C1173.79 801.496 1172.82 801.022 1172.22 800.073C1171.9 799.57 1171.68 798.858 1171.55 797.938C1170.76 798.973 1169.62 799.872 1168.14 800.633C1166.66 801.395 1165.03 801.776 1163.25 801.776C1161.1 801.776 1159.35 801.129 1157.99 799.836C1156.63 798.528 1155.96 796.896 1155.96 794.941C1155.96 792.799 1156.63 791.139 1157.96 789.96C1159.3 788.781 1161.05 788.055 1163.22 787.782L1169.41 787.006ZM1181.73 769.325H1185.61V801H1181.73V769.325ZM1193.95 789.766C1193.95 791.764 1194.23 793.439 1194.79 794.79C1195.78 797.191 1197.56 798.391 1200.12 798.391C1202.82 798.391 1204.68 797.126 1205.7 794.596C1206.26 793.202 1206.54 791.419 1206.54 789.248C1206.54 787.25 1206.23 785.583 1205.62 784.246C1204.57 781.96 1202.72 780.818 1200.08 780.818C1198.39 780.818 1196.95 781.551 1195.74 783.017C1194.55 784.469 1193.95 786.718 1193.95 789.766ZM1199.69 777.389C1201.6 777.389 1203.21 777.871 1204.52 778.834C1205.24 779.351 1205.93 780.113 1206.59 781.119V777.907H1210.27V810.207H1206.37V798.348C1205.72 799.383 1204.83 800.209 1203.68 800.828C1202.54 801.431 1201.12 801.733 1199.41 801.733C1196.95 801.733 1194.75 800.77 1192.81 798.844C1190.87 796.918 1189.9 793.985 1189.9 790.046C1189.9 786.352 1190.8 783.319 1192.61 780.947C1194.44 778.575 1196.8 777.389 1199.69 777.389Z" fill="black"/>
<path d="M209.256 769.325H215.401L224.501 796.105L233.535 769.325H239.616V801H235.541V782.305C235.541 781.658 235.555 780.588 235.584 779.093C235.612 777.598 235.627 775.995 235.627 774.284L226.592 801H222.344L213.245 774.284V775.254C213.245 776.031 213.259 777.217 213.288 778.812C213.331 780.393 213.353 781.558 213.353 782.305V801H209.256V769.325ZM246.236 797.701C245.459 796.537 244.942 795.178 244.683 793.626C244.453 792.562 244.338 790.866 244.338 788.537H261.265C261.193 786.194 260.639 784.318 259.604 782.909C258.569 781.486 256.966 780.774 254.796 780.774C252.769 780.774 251.152 781.443 249.944 782.78C249.254 783.556 248.766 784.454 248.478 785.475H244.661C244.762 784.627 245.093 783.685 245.653 782.65C246.228 781.601 246.868 780.746 247.572 780.084C248.751 778.934 250.21 778.158 251.95 777.756C252.884 777.526 253.941 777.411 255.119 777.411C257.994 777.411 260.431 778.46 262.429 780.559C264.427 782.643 265.426 785.568 265.426 789.335C265.426 793.043 264.42 796.055 262.407 798.369C260.395 800.684 257.764 801.841 254.516 801.841C252.877 801.841 251.288 801.46 249.75 800.698C248.212 799.922 247.041 798.923 246.236 797.701ZM248.327 791.62C248.485 793.302 248.852 794.646 249.427 795.653C250.491 797.521 252.266 798.456 254.753 798.456C256.535 798.456 258.03 797.816 259.238 796.537C260.445 795.243 261.085 793.604 261.157 791.62H248.327ZM272.671 789.723C272.671 792.195 273.196 794.265 274.245 795.933C275.295 797.6 276.976 798.434 279.291 798.434C281.088 798.434 282.561 797.665 283.711 796.127C284.875 794.574 285.458 792.353 285.458 789.464C285.458 786.546 284.861 784.39 283.668 782.995C282.475 781.587 281.001 780.882 279.248 780.882C277.293 780.882 275.704 781.63 274.482 783.125C273.275 784.62 272.671 786.819 272.671 789.723ZM278.515 777.497C280.283 777.497 281.763 777.871 282.956 778.618C283.646 779.049 284.43 779.804 285.307 780.882V769.217H289.037V801H285.544V797.787C284.638 799.21 283.567 800.238 282.331 800.871C281.095 801.503 279.679 801.819 278.083 801.819C275.51 801.819 273.282 800.741 271.399 798.585C269.516 796.414 268.574 793.532 268.574 789.938C268.574 786.575 269.43 783.664 271.14 781.206C272.865 778.733 275.323 777.497 278.515 777.497ZM295.398 797.701C294.622 796.537 294.104 795.178 293.845 793.626C293.615 792.562 293.5 790.866 293.5 788.537H310.427C310.355 786.194 309.802 784.318 308.767 782.909C307.732 781.486 306.129 780.774 303.958 780.774C301.931 780.774 300.314 781.443 299.107 782.78C298.417 783.556 297.928 784.454 297.64 785.475H293.824C293.925 784.627 294.255 783.685 294.816 782.65C295.391 781.601 296.03 780.746 296.735 780.084C297.914 778.934 299.373 778.158 301.112 777.756C302.046 777.526 303.103 777.411 304.282 777.411C307.157 777.411 309.593 778.46 311.591 780.559C313.589 782.643 314.589 785.568 314.589 789.335C314.589 793.043 313.582 796.055 311.57 798.369C309.557 800.684 306.927 801.841 303.678 801.841C302.039 801.841 300.451 801.46 298.913 800.698C297.375 799.922 296.203 798.923 295.398 797.701ZM297.49 791.62C297.648 793.302 298.014 794.646 298.589 795.653C299.653 797.521 301.428 798.456 303.915 798.456C305.698 798.456 307.193 797.816 308.4 796.537C309.608 795.243 310.247 793.604 310.319 791.62H297.49ZM319.375 777.907H323.063V781.184C324.155 779.833 325.312 778.863 326.534 778.273C327.756 777.684 329.114 777.389 330.609 777.389C333.887 777.389 336.101 778.532 337.251 780.818C337.883 782.068 338.199 783.858 338.199 786.187V801H334.253V786.445C334.253 785.037 334.045 783.901 333.628 783.038C332.938 781.601 331.688 780.882 329.876 780.882C328.956 780.882 328.202 780.976 327.612 781.163C326.548 781.479 325.614 782.111 324.809 783.06C324.162 783.822 323.738 784.613 323.537 785.432C323.35 786.237 323.257 787.394 323.257 788.903V801H319.375V777.907ZM343.957 778.014H347.903V801H343.957V778.014ZM343.957 769.325H347.903V773.723H343.957V769.325ZM368.214 777.907H372.505C371.959 779.387 370.744 782.765 368.861 788.041C367.452 792.008 366.274 795.243 365.325 797.744C363.082 803.638 361.501 807.232 360.581 808.525C359.661 809.819 358.08 810.466 355.838 810.466C355.291 810.466 354.867 810.444 354.565 810.401C354.278 810.358 353.918 810.279 353.487 810.164V806.628C354.163 806.815 354.652 806.93 354.953 806.973C355.255 807.016 355.521 807.037 355.751 807.037C356.47 807.037 356.995 806.915 357.325 806.671C357.67 806.441 357.958 806.153 358.188 805.808C358.26 805.693 358.518 805.104 358.964 804.04C359.41 802.977 359.733 802.186 359.934 801.668L351.396 777.907H355.794L361.983 796.709L368.214 777.907ZM390.294 777.907H394.585C394.039 779.387 392.824 782.765 390.941 788.041C389.532 792.008 388.354 795.243 387.405 797.744C385.162 803.638 383.581 807.232 382.661 808.525C381.741 809.819 380.16 810.466 377.917 810.466C377.371 810.466 376.947 810.444 376.645 810.401C376.358 810.358 375.998 810.279 375.567 810.164V806.628C376.243 806.815 376.732 806.93 377.033 806.973C377.335 807.016 377.601 807.037 377.831 807.037C378.55 807.037 379.075 806.915 379.405 806.671C379.75 806.441 380.038 806.153 380.268 805.808C380.34 805.693 380.598 805.104 381.044 804.04C381.49 802.977 381.813 802.186 382.014 801.668L373.476 777.907H377.874L384.063 796.709L390.294 777.907ZM398.553 797.701C397.776 796.537 397.259 795.178 397 793.626C396.77 792.562 396.655 790.866 396.655 788.537H413.582C413.51 786.194 412.956 784.318 411.921 782.909C410.886 781.486 409.284 780.774 407.113 780.774C405.086 780.774 403.469 781.443 402.261 782.78C401.571 783.556 401.083 784.454 400.795 785.475H396.979C397.079 784.627 397.41 783.685 397.971 782.65C398.546 781.601 399.185 780.746 399.89 780.084C401.068 778.934 402.527 778.158 404.267 777.756C405.201 777.526 406.258 777.411 407.436 777.411C410.311 777.411 412.748 778.46 414.746 780.559C416.744 782.643 417.743 785.568 417.743 789.335C417.743 793.043 416.737 796.055 414.725 798.369C412.712 800.684 410.081 801.841 406.833 801.841C405.194 801.841 403.606 801.46 402.067 800.698C400.529 799.922 399.358 798.923 398.553 797.701ZM400.644 791.62C400.802 793.302 401.169 794.646 401.744 795.653C402.808 797.521 404.583 798.456 407.07 798.456C408.852 798.456 410.347 797.816 411.555 796.537C412.762 795.243 413.402 793.604 413.474 791.62H400.644ZM423.306 771.459H427.231V777.907H430.918V781.076H427.231V796.148C427.231 796.953 427.504 797.493 428.05 797.766C428.352 797.924 428.855 798.003 429.56 798.003C429.746 798.003 429.948 798.003 430.163 798.003C430.379 797.988 430.63 797.967 430.918 797.938V801C430.472 801.129 430.005 801.223 429.516 801.28C429.042 801.338 428.525 801.367 427.964 801.367C426.153 801.367 424.924 800.907 424.277 799.987C423.63 799.052 423.306 797.845 423.306 796.364V781.076H420.18V777.907H423.306V771.459Z" fill="black"/>
<circle cx="1096.5" cy="476.5" r="27.5" fill="#CDDEFC"/>
<circle cx="511.5" cy="789.5" r="27.5" fill="#CDDEFC"/>
<circle cx="936.5" cy="789.5" r="27.5" fill="#CDDEFC"/>
<circle cx="349.5" cy="479.5" r="27.5" fill="#CDDEFC"/>
<circle cx="723.5" cy="105.5" r="27.5" fill="#CDDEFC"/>
<circle cx="723" cy="480" r="374" stroke="#19194F" stroke-width="1.83346" stroke-dasharray="11.03 11.03"/>
<circle cx="723" cy="480" r="206.243" stroke="#19194F" stroke-width="1.83346" stroke-dasharray="10.94 10.94"/>
</svg>
