<svg width="16" height="16" viewBox="0 0 16 16" fill="none" xmlns="http://www.w3.org/2000/svg">
<mask id="mask0" mask-type="alpha" maskUnits="userSpaceOnUse" x="0" y="0" width="16" height="16">
<path fill-rule="evenodd" clip-rule="evenodd" d="M0 0H16V16H0V0Z" fill="white"/>
</mask>
<g mask="url(#mask0)">
<path fill-rule="evenodd" clip-rule="evenodd" d="M15.0625 11.6687C15.0625 13.5406 13.5406 15.0625 11.6687 15.0625H4.33125C2.45937 15.0625 0.9375 13.5406 0.9375 11.6687V4.33122C0.9375 2.45934 2.45937 0.9375 4.33125 0.9375H11.6687C13.5406 0.9375 15.0625 2.45934 15.0625 4.33122V11.6687ZM11.6687 0H4.33125C1.94375 0 0 1.94372 0 4.33122V11.6687C0 14.0562 1.94375 16 4.33125 16H11.6687C14.0562 16 16 14.0562 16 11.6687V4.33122C16 1.94372 14.0562 0 11.6687 0Z" fill="#041EAA"/>
</g>
<path fill-rule="evenodd" clip-rule="evenodd" d="M8 11.4375C6.10625 11.4375 4.5625 9.89687 4.5625 8C4.5625 6.10625 6.10313 4.5625 8 4.5625C9.89375 4.5625 11.4375 6.10313 11.4375 8C11.4375 9.89375 9.89375 11.4375 8 11.4375ZM8 3.625C5.5875 3.625 3.625 5.5875 3.625 8C3.625 10.4125 5.5875 12.375 8 12.375C10.4125 12.375 12.375 10.4125 12.375 8C12.375 5.5875 10.4125 3.625 8 3.625Z" fill="#2C2C2C"/>
<path fill-rule="evenodd" clip-rule="evenodd" d="M12.4783 3.71865C12.2814 3.71865 12.1221 3.55928 12.1221 3.3624C12.1221 3.16553 12.2814 3.00615 12.4783 3.00615C12.6752 3.00615 12.8345 3.16553 12.8345 3.3624C12.8345 3.55928 12.6752 3.71865 12.4783 3.71865ZM12.4783 2.07178C11.7658 2.07178 11.1846 2.65303 11.1846 3.36553C11.1846 4.07803 11.7658 4.65928 12.4783 4.65928C13.1908 4.65928 13.772 4.07803 13.772 3.36553C13.772 2.65303 13.1939 2.07178 12.4783 2.07178Z" fill="#041EAA"/>
</svg>
