<svg width="90" height="90" viewBox="0 0 90 90" fill="none" xmlns="http://www.w3.org/2000/svg">
<path fill-rule="evenodd" clip-rule="evenodd" d="M0 30H30V0H0V30ZM7.05882 22.9412H22.9412V7.05882H7.05882V22.9412Z" fill="white"/>
<path fill-rule="evenodd" clip-rule="evenodd" d="M11 18H18V11H11V18Z" fill="white"/>
<path fill-rule="evenodd" clip-rule="evenodd" d="M60 30H90V0H60V30ZM67.0588 22.9412H82.9412V7.05882H67.0588V22.9412Z" fill="white"/>
<path fill-rule="evenodd" clip-rule="evenodd" d="M72 18H79V11H72V18Z" fill="white"/>
<path fill-rule="evenodd" clip-rule="evenodd" d="M0 90H30V60H0V90ZM7.05882 82.9412H22.9412V67.0588H7.05882V82.9412Z" fill="white"/>
<path fill-rule="evenodd" clip-rule="evenodd" d="M11 79H18V72H11V79Z" fill="white"/>
<path fill-rule="evenodd" clip-rule="evenodd" d="M7 42H14V35H7V42Z" fill="white"/>
<path fill-rule="evenodd" clip-rule="evenodd" d="M21.0886 49V42H14V49H20.9114V56H28V49H21.0886Z" fill="white"/>
<path fill-rule="evenodd" clip-rule="evenodd" d="M49 21H56V14H49V21Z" fill="white"/>
<path fill-rule="evenodd" clip-rule="evenodd" d="M35 21H42V7H35V21Z" fill="white"/>
<path fill-rule="evenodd" clip-rule="evenodd" d="M42 7H49V0H42V7Z" fill="white"/>
<path fill-rule="evenodd" clip-rule="evenodd" d="M42 21V28H35V35H49V21H42Z" fill="white"/>
<path fill-rule="evenodd" clip-rule="evenodd" d="M49 62.9114V56H42V42H35V56.1772H42V63.0886H49V70H63V62.9114H49Z" fill="white"/>
<path fill-rule="evenodd" clip-rule="evenodd" d="M49 49H56V35H49V49Z" fill="white"/>
<path fill-rule="evenodd" clip-rule="evenodd" d="M69.9276 35V42.059H63V49.1176H70.1053V56H90V41.8825H82.8947V35H69.9276ZM70.1053 48.9414H82.8947V42.059H70.1053V48.9414Z" fill="white"/>
<path fill-rule="evenodd" clip-rule="evenodd" d="M83 76H90V62H83V76Z" fill="white"/>
<path fill-rule="evenodd" clip-rule="evenodd" d="M56 56H63V49H56V56Z" fill="white"/>
<path fill-rule="evenodd" clip-rule="evenodd" d="M63 76H70V69H63V76Z" fill="white"/>
<path fill-rule="evenodd" clip-rule="evenodd" d="M70 69H77V62H70V69Z" fill="white"/>
<path fill-rule="evenodd" clip-rule="evenodd" d="M70 76V90H77.2222V83.2728H83V76H70Z" fill="white"/>
<path fill-rule="evenodd" clip-rule="evenodd" d="M35 76H42V63H35V76Z" fill="white"/>
<path fill-rule="evenodd" clip-rule="evenodd" d="M42 76V90H49.0588V83.0002H55.941V90H63V83.0002H56.1176V76H42Z" fill="white"/>
<path fill-rule="evenodd" clip-rule="evenodd" d="M21 42H35V35H21V42Z" fill="white"/>
<path fill-rule="evenodd" clip-rule="evenodd" d="M0 56H7V42H0V56Z" fill="white"/>
</svg>
