<svg width="131" height="85" viewBox="0 0 131 85" fill="none" xmlns="http://www.w3.org/2000/svg">
<rect width="131" height="85" rx="19" fill="#E60615"/>
<path d="M78.1406 43.2031C78.7135 43.6719 79 44.2708 79 45C79 45.7292 78.7135 46.3281 78.1406 46.7969L56.4219 59.7656C56.1094 59.9219 55.8229 60 55.5625 60C55.1458 60 54.7812 59.8438 54.4688 59.5312C54.1562 59.2188 54 58.8542 54 58.4375V31.5625C54 31.1458 54.1562 30.7812 54.4688 30.4688C54.7812 30.1562 55.1458 30 55.5625 30C55.875 30 56.1615 30.0781 56.4219 30.2344L78.1406 43.2031Z" fill="white"/>
</svg>
